<svg width="460" height="49" viewBox="0 0 460 49" fill="none" xmlns="http://www.w3.org/2000/svg">
<g filter="url(#filter0_d_1223_1263)">
<g filter="url(#filter1_d_1223_1263)">
<path fill-rule="evenodd" clip-rule="evenodd" d="M91.539 39.412C91.2538 39.4118 90.9729 39.3422 90.7206 39.2091L81.4999 34.362L72.2791 39.2091C71.9888 39.3607 71.662 39.4282 71.3354 39.404C71.0089 39.3798 70.6955 39.265 70.4307 39.0723C70.1659 38.8797 69.9602 38.617 69.8366 38.3137C69.7131 38.0105 69.6767 37.6788 69.7315 37.3559L71.49 27.0891L64.0299 19.8184C63.7952 19.5892 63.6293 19.299 63.5509 18.9804C63.4726 18.6619 63.4848 18.3278 63.5864 18.0159C63.6879 17.7039 63.8747 17.4266 64.1256 17.2153C64.3765 17.004 64.6815 16.867 65.0061 16.82L75.3136 15.3207L79.924 5.98045C80.0692 5.68616 80.2938 5.43836 80.5725 5.26509C80.8512 5.09183 81.1728 5 81.501 5C81.8291 5 82.1508 5.09183 82.4294 5.26509C82.7081 5.43836 82.9328 5.68616 83.078 5.98045L87.6884 15.3207L97.9958 16.82C98.3203 16.8674 98.625 17.0046 98.8756 17.216C99.1262 17.4275 99.3127 17.7048 99.414 18.0167C99.5153 18.3286 99.5274 18.6626 99.4489 18.9809C99.3704 19.2993 99.2044 19.5894 98.9698 19.8184L91.512 27.0891L93.2705 37.3559C93.3138 37.6082 93.3015 37.8669 93.2345 38.114C93.1674 38.361 93.0473 38.5904 92.8824 38.7862C92.7175 38.982 92.5119 39.1395 92.2799 39.2476C92.0478 39.3556 91.795 39.4118 91.539 39.412Z" fill="white"/>
</g>
<g filter="url(#filter2_d_1223_1263)">
<path d="M131.032 32.432H118.668C117.935 32.432 117.363 32.256 116.952 31.904C116.541 31.552 116.336 31.0827 116.336 30.496C116.336 30.056 116.424 29.616 116.6 29.176C116.805 28.7067 117.069 28.3107 117.392 27.988L135.872 9.816C136.165 9.52266 136.576 9.288 137.104 9.112C137.661 8.90666 138.233 8.804 138.82 8.804C139.553 8.804 140.14 9.00933 140.58 9.42C141.049 9.83066 141.284 10.3733 141.284 11.048C141.284 11.312 141.269 11.5027 141.24 11.62L138.512 26.932H143.572C143.249 28.8387 142.692 30.232 141.9 31.112C141.108 31.992 140.008 32.432 138.6 32.432H137.544L136.84 36.436C136.605 37.8147 135.916 38.8267 134.772 39.472C133.628 40.088 131.912 40.396 129.624 40.396L131.032 32.432ZM132.44 26.932L133.804 19.364L135.872 17.12L135.564 16.856L125.268 26.932H132.44ZM162.987 14.788H152.339C153.014 11.0627 155.023 9.2 158.367 9.2H180.983C180.367 12.9253 178.358 14.788 174.955 14.788H169.455L165.759 35.732C165.495 37.2573 164.732 38.416 163.471 39.208C162.239 40 160.567 40.396 158.455 40.396L162.987 14.788ZM188.143 13.468C188.407 11.9427 189.155 10.784 190.387 9.992C191.619 9.2 193.306 8.804 195.447 8.804L193.159 21.696H205.479L206.931 13.468C207.195 11.9427 207.943 10.784 209.175 9.992C210.437 9.2 212.123 8.804 214.235 8.804L209.483 35.732C209.219 37.2573 208.457 38.416 207.195 39.208C205.963 40 204.291 40.396 202.179 40.396L204.511 27.284H192.191L190.695 35.732C190.431 37.2573 189.669 38.416 188.407 39.208C187.175 40 185.503 40.396 183.391 40.396L188.143 13.468ZM238.628 12.148C238.775 11.2973 239.215 10.5933 239.948 10.036C240.681 9.47866 241.503 9.2 242.412 9.2H254.292C256.052 9.2 257.651 9.56667 259.088 10.3C260.525 11.004 261.655 11.9867 262.476 13.248C263.297 14.48 263.708 15.8733 263.708 17.428C263.708 21.3587 262.593 24.424 260.364 26.624C258.135 28.824 255.025 29.924 251.036 29.924H241.972L240.96 35.732C240.696 37.2573 239.933 38.416 238.672 39.208C237.44 40 235.768 40.396 233.656 40.396L238.628 12.148ZM251.608 24.336C253.485 24.336 254.879 23.852 255.788 22.884C256.697 21.8867 257.152 20.3613 257.152 18.308C257.152 17.1933 256.815 16.328 256.14 15.712C255.495 15.096 254.556 14.788 253.324 14.788H244.656L242.94 24.336H251.608ZM273.321 12.148C273.468 11.2973 273.908 10.5933 274.641 10.036C275.374 9.47866 276.196 9.2 277.105 9.2H288.633C291.449 9.2 293.605 9.84533 295.101 11.136C296.626 12.3973 297.389 14.216 297.389 16.592C297.389 18.8507 296.905 20.7867 295.937 22.4C294.969 24.0133 293.546 25.2307 291.669 26.052V26.228C293.576 27.196 294.529 28.78 294.529 30.98C294.529 31.3027 294.47 31.8747 294.353 32.696L293.825 35.732C293.561 37.2573 292.798 38.416 291.537 39.208C290.305 40 288.633 40.396 286.521 40.396L287.841 32.916C287.929 32.388 287.973 31.8893 287.973 31.42C287.973 30.4813 287.738 29.792 287.269 29.352C286.8 28.8827 286.081 28.648 285.113 28.648H276.797L275.565 35.732C275.301 37.2573 274.553 38.416 273.321 39.208C272.118 40 270.461 40.396 268.349 40.396L273.321 12.148ZM285.817 23.148C287.342 23.148 288.56 22.6493 289.469 21.652C290.378 20.6547 290.833 19.3053 290.833 17.604C290.833 15.668 289.66 14.7 287.313 14.7H279.261L277.765 23.148H285.817ZM307.858 13.512C308.122 12.016 308.884 10.8573 310.146 10.036C311.407 9.21466 313.064 8.804 315.118 8.804L310.366 35.688C310.102 37.184 309.339 38.3427 308.078 39.164C306.816 39.9853 305.159 40.396 303.106 40.396L307.858 13.512ZM321.8 40C321.038 40 320.422 39.8093 319.952 39.428C319.512 39.0467 319.292 38.5187 319.292 37.844C319.292 37.3747 319.38 36.9347 319.556 36.524C319.732 36.084 319.982 35.7027 320.304 35.38L343.492 13.028L343.14 12.676L340.94 14.7H328.972C327.74 14.7 326.802 14.3773 326.156 13.732C325.511 13.0867 325.188 12.148 325.188 10.916C325.188 10.3293 325.247 9.75733 325.364 9.2H348.992C349.814 9.2 350.43 9.376 350.84 9.728C351.28 10.08 351.5 10.5933 351.5 11.268C351.5 11.7373 351.412 12.2067 351.236 12.676C351.06 13.116 350.811 13.4973 350.488 13.82L327.52 36.172L327.872 36.524L330.028 34.5H343.008C344.211 34.5 345.135 34.8227 345.78 35.468C346.426 36.1133 346.748 37.052 346.748 38.284C346.748 38.8707 346.69 39.4427 346.572 40H321.8ZM359.869 12.148C360.015 11.3267 360.455 10.6373 361.189 10.08C361.922 9.49333 362.743 9.2 363.653 9.2H383.321C382.998 11.1067 382.426 12.5147 381.605 13.424C380.783 14.304 379.654 14.744 378.217 14.744H365.853L364.665 21.696H376.193C375.87 23.6027 375.298 25.0107 374.477 25.92C373.655 26.8 372.526 27.24 371.089 27.24H363.653L362.377 34.456H375.665C376.779 34.456 377.601 34.7347 378.129 35.292C378.686 35.82 378.965 36.6707 378.965 37.844C378.965 38.4013 378.891 39.12 378.745 40H358.197C357.375 40 356.701 39.78 356.173 39.34C355.674 38.8707 355.425 38.284 355.425 37.58C355.425 37.3453 355.439 37.1693 355.469 37.052L359.869 12.148ZM393.171 13.204C393.435 11.7373 394.168 10.6373 395.371 9.904C396.603 9.17066 398.216 8.804 400.211 8.804L397.175 26.008C396.911 27.504 396.163 28.648 394.931 29.44C393.728 30.232 392.115 30.628 390.091 30.628L393.171 13.204ZM391.323 40.396C390.208 40.396 389.313 40.1027 388.639 39.516C387.993 38.9293 387.671 38.1667 387.671 37.228C387.671 35.9373 388.155 34.8373 389.123 33.928C390.12 32.9893 391.308 32.52 392.687 32.52C393.772 32.52 394.652 32.828 395.327 33.444C396.031 34.0307 396.383 34.808 396.383 35.776C396.383 37.0373 395.884 38.1227 394.887 39.032C393.889 39.9413 392.701 40.396 391.323 40.396Z" fill="white"/>
</g>
</g>
<defs>
<filter id="filter0_d_1223_1263" x="0" y="0" width="465" height="49" filterUnits="userSpaceOnUse" color-interpolation-filters="sRGB">
<feFlood flood-opacity="0" result="BackgroundImageFix"/>
<feColorMatrix in="SourceAlpha" type="matrix" values="0 0 0 0 0 0 0 0 0 0 0 0 0 0 0 0 0 0 127 0" result="hardAlpha"/>
<feOffset dx="5" dy="5"/>
<feColorMatrix type="matrix" values="0 0 0 0 0 0 0 0 0 0 0 0 0 0 0 0 0 0 0.3 0"/>
<feBlend mode="normal" in2="BackgroundImageFix" result="effect1_dropShadow_1223_1263"/>
<feBlend mode="normal" in="SourceGraphic" in2="effect1_dropShadow_1223_1263" result="shape"/>
</filter>
<filter id="filter1_d_1223_1263" x="57.5" y="0" width="46" height="46" filterUnits="userSpaceOnUse" color-interpolation-filters="sRGB">
<feFlood flood-opacity="0" result="BackgroundImageFix"/>
<feColorMatrix in="SourceAlpha" type="matrix" values="0 0 0 0 0 0 0 0 0 0 0 0 0 0 0 0 0 0 127 0" result="hardAlpha"/>
<feOffset dx="-2" dy="2"/>
<feComposite in2="hardAlpha" operator="out"/>
<feColorMatrix type="matrix" values="0 0 0 0 0 0 0 0 0 0.466667 0 0 0 0 0.901961 0 0 0 1 0"/>
<feBlend mode="normal" in2="BackgroundImageFix" result="effect1_dropShadow_1223_1263"/>
<feBlend mode="normal" in="SourceGraphic" in2="effect1_dropShadow_1223_1263" result="shape"/>
</filter>
<filter id="filter2_d_1223_1263" x="114.336" y="8.804" width="285.875" height="33.592" filterUnits="userSpaceOnUse" color-interpolation-filters="sRGB">
<feFlood flood-opacity="0" result="BackgroundImageFix"/>
<feColorMatrix in="SourceAlpha" type="matrix" values="0 0 0 0 0 0 0 0 0 0 0 0 0 0 0 0 0 0 127 0" result="hardAlpha"/>
<feOffset dx="-2" dy="2"/>
<feComposite in2="hardAlpha" operator="out"/>
<feColorMatrix type="matrix" values="0 0 0 0 0 0 0 0 0 0.466667 0 0 0 0 0.901961 0 0 0 1 0"/>
<feBlend mode="normal" in2="BackgroundImageFix" result="effect1_dropShadow_1223_1263"/>
<feBlend mode="normal" in="SourceGraphic" in2="effect1_dropShadow_1223_1263" result="shape"/>
</filter>
</defs>
</svg>
