<svg width="460" height="49" viewBox="0 0 460 49" fill="none" xmlns="http://www.w3.org/2000/svg">
<g filter="url(#filter0_d_827_285)">
<g filter="url(#filter1_d_827_285)">
<path d="M61.2841 8.8441H58.1305V7.81712C58.1305 7.49438 58.0023 7.18486 57.7741 6.95662C57.546 6.72838 57.2365 6.60011 56.9138 6.60001H36.2312C36.0714 6.6 35.9131 6.63147 35.7655 6.69264C35.6178 6.7538 35.4836 6.84345 35.3706 6.95647C35.2576 7.06949 35.1679 7.20366 35.1067 7.35133C35.0456 7.499 35.0141 7.65728 35.0141 7.81712V8.8441H31.7157C30.9694 8.845 30.2538 9.14188 29.7261 9.66963C29.1983 10.1974 28.9015 10.9129 28.9006 11.6593V13.483C28.8821 14.9443 29.2469 16.3849 29.9586 17.6614C30.6704 18.9378 31.7041 20.0054 32.9569 20.7579C34.0459 21.3861 35.2642 21.7569 36.5185 21.842C36.5454 21.8438 36.5722 21.8447 36.599 21.8447C36.6433 21.8433 36.6875 21.8391 36.7314 21.8322C37.9385 23.7939 39.7022 25.3519 41.798 26.3076C42.5645 26.6711 43.2107 27.2468 43.6599 27.9665C44.1091 28.6861 44.3425 29.5196 44.3323 30.3679V32.4578C44.3324 32.8322 44.1837 33.1913 43.9189 33.4562C43.6542 33.721 43.2951 33.8698 42.9206 33.8698H40.0019C39.5476 33.8698 39.1119 34.0503 38.7907 34.3715C38.4695 34.6928 38.289 35.1284 38.289 35.5827V37.9243H54.8558V35.5824C54.8557 35.1282 54.6752 34.6925 54.354 34.3714C54.0327 34.0502 53.5971 33.8698 53.1428 33.8698H50.224C49.8495 33.8698 49.4904 33.721 49.2256 33.4562C48.9608 33.1914 48.8121 32.8323 48.812 32.4578V30.3676C48.8019 29.5193 49.0353 28.6859 49.4845 27.9662C49.9338 27.2465 50.58 26.6708 51.3466 26.3074C53.4379 25.3538 55.1988 23.8005 56.4058 21.8446C56.4308 21.8446 56.4561 21.8436 56.4812 21.842C57.7354 21.757 58.9535 21.3862 60.0422 20.7579C61.2951 20.0055 62.329 18.9379 63.0408 17.6615C63.7527 16.385 64.1176 14.9444 64.0992 13.483V11.6593C64.0983 10.9129 63.8015 10.1974 63.2737 9.66963C62.746 9.14188 62.0304 8.845 61.2841 8.8441ZM34.0507 18.8675C33.1291 18.3072 32.3703 17.5153 31.8499 16.5706C31.3295 15.6259 31.0656 14.5614 31.0845 13.483V11.6593C31.0846 11.4919 31.1512 11.3314 31.2695 11.2131C31.3879 11.0947 31.5484 11.0282 31.7157 11.028H35.0141V15.7826C35.015 17.044 35.2231 18.2967 35.63 19.4907C35.0765 19.3596 34.5446 19.1497 34.0507 18.8675ZM50.9431 16.3301L49.614 17.2956C49.4617 17.4063 49.3483 17.5624 49.2901 17.7415C49.2319 17.9206 49.232 18.1136 49.2902 18.2927L49.7976 19.8547C49.8558 20.0338 49.8558 20.2268 49.7976 20.4059C49.7394 20.585 49.626 20.7411 49.4737 20.8518C49.3213 20.9625 49.1378 21.0222 48.9495 21.0222C48.7611 21.0222 48.5776 20.9626 48.4252 20.8519L47.0962 19.8865C46.9438 19.7758 46.7604 19.7162 46.5721 19.7162C46.3838 19.7162 46.2003 19.7758 46.0479 19.8865L44.7189 20.8519C44.5665 20.9626 44.383 21.0222 44.1947 21.0222C44.0063 21.0222 43.8228 20.9625 43.6705 20.8518C43.5181 20.7411 43.4047 20.585 43.3465 20.4059C43.2883 20.2268 43.2883 20.0338 43.3465 19.8547L43.8541 18.2927C43.9122 18.1135 43.9122 17.9206 43.854 17.7415C43.7958 17.5624 43.6824 17.4063 43.53 17.2956L42.2019 16.3301C42.0495 16.2194 41.9361 16.0633 41.8778 15.8842C41.8196 15.7051 41.8196 15.5121 41.8778 15.333C41.936 15.1539 42.0494 14.9978 42.2018 14.887C42.3541 14.7763 42.5377 14.7167 42.726 14.7167H44.3683C44.5567 14.7167 44.7402 14.6571 44.8926 14.5464C45.0449 14.4357 45.1583 14.2796 45.2166 14.1005L45.7242 12.5385C45.7824 12.3594 45.8958 12.2033 46.0481 12.0926C46.2005 11.9819 46.384 11.9222 46.5723 11.9222C46.7607 11.9222 46.9442 11.9819 47.0966 12.0926C47.2489 12.2033 47.3623 12.3594 47.4205 12.5385L47.9281 14.1005C47.9864 14.2796 48.0998 14.4357 48.2522 14.5463C48.4046 14.657 48.588 14.7166 48.7764 14.7167H50.4189C50.6072 14.7167 50.7907 14.7764 50.9431 14.8871C51.0954 14.9978 51.2088 15.1539 51.267 15.333C51.3252 15.5121 51.3252 15.705 51.267 15.8842C51.2088 16.0633 51.0954 16.2194 50.9431 16.3301ZM61.9154 13.4829C61.9342 14.5614 61.6702 15.626 61.1496 16.5708C60.6291 17.5155 59.8702 18.3075 58.9485 18.8678C58.5023 19.1233 58.0248 19.3198 57.5281 19.4523C57.9263 18.2697 58.1299 17.0303 58.1307 15.7824V11.0278H61.2841C61.4515 11.028 61.6119 11.0946 61.7303 11.2129C61.8486 11.3312 61.9152 11.4917 61.9154 11.6591V13.4829Z" fill="white"/>
</g>
<g filter="url(#filter2_d_827_285)">
<path d="M93.964 40.396C91.5587 40.396 89.4467 39.9853 87.628 39.164C85.8387 38.3133 84.4453 37.14 83.448 35.644C82.4507 34.148 81.952 32.4173 81.952 30.452C81.952 29.6893 82.0107 28.9707 82.128 28.296L83.448 20.816C83.8587 18.4693 84.768 16.3867 86.176 14.568C87.6133 12.7493 89.432 11.3413 91.632 10.344C93.832 9.31733 96.2813 8.804 98.98 8.804C101.297 8.804 103.365 9.14133 105.184 9.816C107.003 10.4907 108.411 11.4293 109.408 12.632C110.435 13.8347 110.948 15.2133 110.948 16.768C110.948 18.1173 110.273 19.2173 108.924 20.068C107.604 20.9187 105.873 21.344 103.732 21.344C104.113 20.2 104.304 19.2027 104.304 18.352C104.304 17.1787 103.717 16.2253 102.544 15.492C101.371 14.7293 99.86 14.348 98.012 14.348C95.9587 14.348 94.1693 14.9493 92.644 16.152C91.148 17.3547 90.2387 18.9093 89.916 20.816L88.596 28.296C88.5373 28.5893 88.508 29 88.508 29.528C88.508 31.1413 89.0507 32.432 90.136 33.4C91.2507 34.368 92.7613 34.852 94.668 34.852C96.7213 34.852 98.4667 34.3827 99.904 33.444C101.371 32.5053 102.236 31.3027 102.5 29.836L102.676 28.824H99.464C98.4667 28.824 97.66 28.4867 97.044 27.812C96.4573 27.108 96.164 26.184 96.164 25.04C96.164 24.6293 96.208 24.204 96.296 23.764H106.988C107.751 23.764 108.352 23.984 108.792 24.424C109.261 24.8347 109.496 25.392 109.496 26.096C109.496 26.36 109.481 26.5653 109.452 26.712L108.88 29.968C108.528 31.992 107.663 33.796 106.284 35.38C104.935 36.964 103.189 38.196 101.048 39.076C98.936 39.956 96.5747 40.396 93.964 40.396ZM120.389 12.148C120.536 11.2973 120.976 10.5933 121.709 10.036C122.442 9.47866 123.264 9.2 124.173 9.2H135.701C138.517 9.2 140.673 9.84533 142.169 11.136C143.694 12.3973 144.457 14.216 144.457 16.592C144.457 18.8507 143.973 20.7867 143.005 22.4C142.037 24.0133 140.614 25.2307 138.737 26.052V26.228C140.644 27.196 141.597 28.78 141.597 30.98C141.597 31.3027 141.538 31.8747 141.421 32.696L140.893 35.732C140.629 37.2573 139.866 38.416 138.605 39.208C137.373 40 135.701 40.396 133.589 40.396L134.909 32.916C134.997 32.388 135.041 31.8893 135.041 31.42C135.041 30.4813 134.806 29.792 134.337 29.352C133.868 28.8827 133.149 28.648 132.181 28.648H123.865L122.633 35.732C122.369 37.2573 121.621 38.416 120.389 39.208C119.186 40 117.529 40.396 115.417 40.396L120.389 12.148ZM132.885 23.148C134.41 23.148 135.628 22.6493 136.537 21.652C137.446 20.6547 137.901 19.3053 137.901 17.604C137.901 15.668 136.728 14.7 134.381 14.7H126.329L124.833 23.148H132.885ZM153.034 40.396C151.772 40.2787 150.79 39.8973 150.086 39.252C149.411 38.5773 149.074 37.7413 149.074 36.744C149.074 35.6 149.484 34.3827 150.306 33.092L164.254 10.96C164.752 10.1973 165.28 9.65466 165.838 9.332C166.395 8.98 167.04 8.804 167.774 8.804C169.27 8.804 170.208 9.52266 170.59 10.96L176.618 33.092C176.794 33.796 176.882 34.456 176.882 35.072C176.882 36.568 176.412 37.8 175.474 38.768C174.564 39.7067 173.318 40.2493 171.734 40.396L169.534 32.344H158.138L153.034 40.396ZM168.434 26.8L165.882 15.536L165.222 15.8L165.882 18.748L161.042 26.8H168.434ZM189.08 13.864C189.344 12.3387 190.092 11.1213 191.324 10.212C192.556 9.27333 194.067 8.804 195.856 8.804L205.976 31.156L206.548 30.76L205.14 27.46L208.44 8.804C212.195 8.804 214.072 10.0507 214.072 12.544C214.072 12.6907 214.043 12.9987 213.984 13.468L209.98 36.128C209.775 37.2427 209.1 38.24 207.956 39.12C206.812 39.9707 205.595 40.396 204.304 40.396L193.48 16.592L192.952 16.988L194.36 20.288L191.632 35.732C191.368 37.2573 190.62 38.416 189.388 39.208C188.156 40 186.499 40.396 184.416 40.396L189.08 13.864ZM221.808 40C220.986 40 220.312 39.78 219.784 39.34C219.285 38.8707 219.036 38.284 219.036 37.58C219.036 37.3453 219.05 37.1693 219.08 37.052L223.48 12.148C223.626 11.2973 224.066 10.5933 224.8 10.036C225.533 9.47866 226.354 9.2 227.264 9.2H236.856C239.056 9.2 241.021 9.64 242.752 10.52C244.512 11.4 245.876 12.6173 246.844 14.172C247.812 15.7267 248.296 17.4573 248.296 19.364C248.296 20.0973 248.237 20.7573 248.12 21.344L246.976 27.768C246.242 31.7867 244.57 34.8373 241.96 36.92C239.349 38.9733 235.829 40 231.4 40H221.808ZM231.928 34.456C234.362 34.456 236.298 33.8987 237.736 32.784C239.202 31.6693 240.126 30.0267 240.508 27.856L241.652 21.256C241.74 20.6693 241.784 20.1413 241.784 19.672C241.784 18.0587 241.241 16.8413 240.156 16.02C239.1 15.1693 237.516 14.744 235.404 14.744H229.464L225.988 34.456H231.928ZM273.83 12.148C273.977 11.2973 274.417 10.5933 275.15 10.036C275.884 9.47866 276.705 9.2 277.614 9.2H289.494C291.254 9.2 292.853 9.56667 294.29 10.3C295.728 11.004 296.857 11.9867 297.678 13.248C298.5 14.48 298.91 15.8733 298.91 17.428C298.91 21.3587 297.796 24.424 295.566 26.624C293.337 28.824 290.228 29.924 286.238 29.924H277.174L276.162 35.732C275.898 37.2573 275.136 38.416 273.874 39.208C272.642 40 270.97 40.396 268.858 40.396L273.83 12.148ZM286.81 24.336C288.688 24.336 290.081 23.852 290.99 22.884C291.9 21.8867 292.354 20.3613 292.354 18.308C292.354 17.1933 292.017 16.328 291.342 15.712C290.697 15.096 289.758 14.788 288.526 14.788H279.858L278.142 24.336H286.81ZM308.523 12.148C308.67 11.2973 309.11 10.5933 309.843 10.036C310.577 9.47866 311.398 9.2 312.307 9.2H323.835C326.651 9.2 328.807 9.84533 330.303 11.136C331.829 12.3973 332.591 14.216 332.591 16.592C332.591 18.8507 332.107 20.7867 331.139 22.4C330.171 24.0133 328.749 25.2307 326.871 26.052V26.228C328.778 27.196 329.731 28.78 329.731 30.98C329.731 31.3027 329.673 31.8747 329.555 32.696L329.027 35.732C328.763 37.2573 328.001 38.416 326.739 39.208C325.507 40 323.835 40.396 321.723 40.396L323.043 32.916C323.131 32.388 323.175 31.8893 323.175 31.42C323.175 30.4813 322.941 29.792 322.471 29.352C322.002 28.8827 321.283 28.648 320.315 28.648H311.999L310.767 35.732C310.503 37.2573 309.755 38.416 308.523 39.208C307.321 40 305.663 40.396 303.551 40.396L308.523 12.148ZM321.019 23.148C322.545 23.148 323.762 22.6493 324.671 21.652C325.581 20.6547 326.035 19.3053 326.035 17.604C326.035 15.668 324.862 14.7 322.515 14.7H314.463L312.967 23.148H321.019ZM343.06 13.512C343.324 12.016 344.087 10.8573 345.348 10.036C346.609 9.21466 348.267 8.804 350.32 8.804L345.568 35.688C345.304 37.184 344.541 38.3427 343.28 39.164C342.019 39.9853 340.361 40.396 338.308 40.396L343.06 13.512ZM357.003 40C356.24 40 355.624 39.8093 355.155 39.428C354.715 39.0467 354.495 38.5187 354.495 37.844C354.495 37.3747 354.583 36.9347 354.759 36.524C354.935 36.084 355.184 35.7027 355.507 35.38L378.695 13.028L378.343 12.676L376.143 14.7H364.175C362.943 14.7 362.004 14.3773 361.359 13.732C360.713 13.0867 360.391 12.148 360.391 10.916C360.391 10.3293 360.449 9.75733 360.567 9.2H384.195C385.016 9.2 385.632 9.376 386.043 9.728C386.483 10.08 386.703 10.5933 386.703 11.268C386.703 11.7373 386.615 12.2067 386.439 12.676C386.263 13.116 386.013 13.4973 385.691 13.82L362.723 36.172L363.075 36.524L365.231 34.5H378.211C379.413 34.5 380.337 34.8227 380.983 35.468C381.628 36.1133 381.951 37.052 381.951 38.284C381.951 38.8707 381.892 39.4427 381.775 40H357.003ZM395.071 12.148C395.218 11.3267 395.658 10.6373 396.391 10.08C397.124 9.49333 397.946 9.2 398.855 9.2H418.523C418.2 11.1067 417.628 12.5147 416.807 13.424C415.986 14.304 414.856 14.744 413.419 14.744H401.055L399.867 21.696H411.395C411.072 23.6027 410.5 25.0107 409.679 25.92C408.858 26.8 407.728 27.24 406.291 27.24H398.855L397.579 34.456H410.867C411.982 34.456 412.803 34.7347 413.331 35.292C413.888 35.82 414.167 36.6707 414.167 37.844C414.167 38.4013 414.094 39.12 413.947 40H393.399C392.578 40 391.903 39.78 391.375 39.34C390.876 38.8707 390.627 38.284 390.627 37.58C390.627 37.3453 390.642 37.1693 390.671 37.052L395.071 12.148ZM428.373 13.204C428.637 11.7373 429.37 10.6373 430.573 9.904C431.805 9.17066 433.418 8.804 435.413 8.804L432.377 26.008C432.113 27.504 431.365 28.648 430.133 29.44C428.93 30.232 427.317 30.628 425.293 30.628L428.373 13.204ZM426.525 40.396C425.41 40.396 424.516 40.1027 423.841 39.516C423.196 38.9293 422.873 38.1667 422.873 37.228C422.873 35.9373 423.357 34.8373 424.325 33.928C425.322 32.9893 426.51 32.52 427.889 32.52C428.974 32.52 429.854 32.828 430.529 33.444C431.233 34.0307 431.585 34.808 431.585 35.776C431.585 37.0373 431.086 38.1227 430.089 39.032C429.092 39.9413 427.904 40.396 426.525 40.396Z" fill="white"/>
</g>
</g>
<defs>
<filter id="filter0_d_827_285" x="0" y="0" width="465" height="49" filterUnits="userSpaceOnUse" color-interpolation-filters="sRGB">
<feFlood flood-opacity="0" result="BackgroundImageFix"/>
<feColorMatrix in="SourceAlpha" type="matrix" values="0 0 0 0 0 0 0 0 0 0 0 0 0 0 0 0 0 0 127 0" result="hardAlpha"/>
<feOffset dx="5" dy="5"/>
<feColorMatrix type="matrix" values="0 0 0 0 0 0 0 0 0 0 0 0 0 0 0 0 0 0 0.3 0"/>
<feBlend mode="normal" in2="BackgroundImageFix" result="effect1_dropShadow_827_285"/>
<feBlend mode="normal" in="SourceGraphic" in2="effect1_dropShadow_827_285" result="shape"/>
</filter>
<filter id="filter1_d_827_285" x="22.5" y="0" width="46" height="46" filterUnits="userSpaceOnUse" color-interpolation-filters="sRGB">
<feFlood flood-opacity="0" result="BackgroundImageFix"/>
<feColorMatrix in="SourceAlpha" type="matrix" values="0 0 0 0 0 0 0 0 0 0 0 0 0 0 0 0 0 0 127 0" result="hardAlpha"/>
<feOffset dx="-2" dy="2"/>
<feComposite in2="hardAlpha" operator="out"/>
<feColorMatrix type="matrix" values="0 0 0 0 0 0 0 0 0 0.466667 0 0 0 0 0.901961 0 0 0 1 0"/>
<feBlend mode="normal" in2="BackgroundImageFix" result="effect1_dropShadow_827_285"/>
<feBlend mode="normal" in="SourceGraphic" in2="effect1_dropShadow_827_285" result="shape"/>
</filter>
<filter id="filter2_d_827_285" x="79.9519" y="8.804" width="355.461" height="33.592" filterUnits="userSpaceOnUse" color-interpolation-filters="sRGB">
<feFlood flood-opacity="0" result="BackgroundImageFix"/>
<feColorMatrix in="SourceAlpha" type="matrix" values="0 0 0 0 0 0 0 0 0 0 0 0 0 0 0 0 0 0 127 0" result="hardAlpha"/>
<feOffset dx="-2" dy="2"/>
<feComposite in2="hardAlpha" operator="out"/>
<feColorMatrix type="matrix" values="0 0 0 0 0 0 0 0 0 0.466667 0 0 0 0 0.901961 0 0 0 1 0"/>
<feBlend mode="normal" in2="BackgroundImageFix" result="effect1_dropShadow_827_285"/>
<feBlend mode="normal" in="SourceGraphic" in2="effect1_dropShadow_827_285" result="shape"/>
</filter>
</defs>
</svg>
