<svg width="460" height="49" viewBox="0 0 460 49" fill="none" xmlns="http://www.w3.org/2000/svg">
<g filter="url(#filter0_d_1710_1853)">
<g filter="url(#filter1_d_1710_1853)">
<path fill-rule="evenodd" clip-rule="evenodd" d="M99.039 39.412C98.7538 39.4118 98.4729 39.3422 98.2206 39.2091L88.9999 34.362L79.7791 39.2091C79.4888 39.3607 79.162 39.4282 78.8354 39.404C78.5089 39.3798 78.1955 39.265 77.9307 39.0723C77.6659 38.8797 77.4602 38.617 77.3366 38.3137C77.2131 38.0105 77.1767 37.6788 77.2315 37.3559L78.99 27.0891L71.5299 19.8184C71.2952 19.5892 71.1293 19.299 71.0509 18.9804C70.9726 18.6619 70.9848 18.3278 71.0864 18.0159C71.1879 17.7039 71.3747 17.4266 71.6256 17.2153C71.8765 17.004 72.1815 16.867 72.5061 16.82L82.8136 15.3207L87.424 5.98045C87.5692 5.68616 87.7938 5.43836 88.0725 5.26509C88.3512 5.09183 88.6728 5 89.001 5C89.3291 5 89.6508 5.09183 89.9294 5.26509C90.2081 5.43836 90.4328 5.68616 90.578 5.98045L95.1884 15.3207L105.496 16.82C105.82 16.8674 106.125 17.0046 106.376 17.216C106.626 17.4275 106.813 17.7048 106.914 18.0167C107.015 18.3286 107.027 18.6626 106.949 18.9809C106.87 19.2993 106.704 19.5894 106.47 19.8184L99.012 27.0891L100.77 37.3559C100.814 37.6082 100.801 37.8669 100.734 38.114C100.667 38.361 100.547 38.5904 100.382 38.7862C100.218 38.982 100.012 39.1395 99.7799 39.2476C99.5478 39.3556 99.295 39.4118 99.039 39.412Z" fill="white"/>
</g>
<g filter="url(#filter2_d_1710_1853)">
<path d="M133.076 14.744H130.964C129.849 14.744 128.984 14.3773 128.368 13.644C127.752 12.9107 127.444 11.9133 127.444 10.652C127.444 10.212 127.488 9.728 127.576 9.2H137.52C138.253 9.2 138.855 9.42 139.324 9.86C139.823 10.3 140.072 10.8427 140.072 11.488C140.072 11.6933 140.057 11.84 140.028 11.928L135.848 35.732C135.584 37.2573 134.821 38.416 133.56 39.208C132.328 40 130.656 40.396 128.544 40.396L133.076 14.744ZM157.535 40.396C153.692 40.396 150.642 39.7947 148.383 38.592C146.154 37.36 145.039 35.7027 145.039 33.62C145.039 30.3933 147.078 28.78 151.155 28.78C151.126 29.0147 151.111 29.3667 151.111 29.836C151.111 31.6253 151.698 32.9893 152.871 33.928C154.044 34.8373 155.746 35.292 157.975 35.292C160.058 35.292 161.715 34.896 162.947 34.104C164.179 33.2827 164.795 32.1973 164.795 30.848C164.795 30.2613 164.604 29.7627 164.223 29.352C163.842 28.912 163.182 28.516 162.243 28.164C161.334 27.7827 160.043 27.3867 158.371 26.976C154.88 26.1253 152.314 25.04 150.671 23.72C149.058 22.3707 148.251 20.684 148.251 18.66C148.251 16.6653 148.779 14.92 149.835 13.424C150.92 11.928 152.46 10.784 154.455 9.992C156.479 9.2 158.855 8.804 161.583 8.804C163.754 8.804 165.69 9.068 167.391 9.596C169.092 10.124 170.412 10.872 171.351 11.84C172.319 12.7787 172.803 13.8493 172.803 15.052C172.803 17.9267 170.838 19.4373 166.907 19.584C166.936 19.3493 166.951 18.9973 166.951 18.528C166.951 16.9147 166.482 15.7413 165.543 15.008C164.634 14.2747 163.167 13.908 161.143 13.908C159.119 13.908 157.535 14.2747 156.391 15.008C155.247 15.712 154.675 16.7093 154.675 18C154.675 18.8507 155.1 19.5547 155.951 20.112C156.802 20.64 158.327 21.1533 160.527 21.652C164.194 22.5027 166.892 23.6173 168.623 24.996C170.354 26.3747 171.219 28.1053 171.219 30.188C171.219 32.2707 170.662 34.0893 169.547 35.644C168.462 37.1693 166.878 38.3427 164.795 39.164C162.742 39.9853 160.322 40.396 157.535 40.396ZM189.582 14.788H178.934C179.609 11.0627 181.618 9.2 184.962 9.2H207.578C206.962 12.9253 204.953 14.788 201.55 14.788H196.05L192.354 35.732C192.09 37.2573 191.328 38.416 190.066 39.208C188.834 40 187.162 40.396 185.05 40.396L189.582 14.788ZM230.702 12.148C230.849 11.2973 231.289 10.5933 232.022 10.036C232.756 9.47866 233.577 9.2 234.486 9.2H246.366C248.126 9.2 249.725 9.56667 251.162 10.3C252.6 11.004 253.729 11.9867 254.55 13.248C255.372 14.48 255.782 15.8733 255.782 17.428C255.782 21.3587 254.668 24.424 252.438 26.624C250.209 28.824 247.1 29.924 243.11 29.924H234.046L233.034 35.732C232.77 37.2573 232.008 38.416 230.746 39.208C229.514 40 227.842 40.396 225.73 40.396L230.702 12.148ZM243.682 24.336C245.56 24.336 246.953 23.852 247.862 22.884C248.772 21.8867 249.226 20.3613 249.226 18.308C249.226 17.1933 248.889 16.328 248.214 15.712C247.569 15.096 246.63 14.788 245.398 14.788H236.73L235.014 24.336H243.682ZM265.395 12.148C265.542 11.2973 265.982 10.5933 266.715 10.036C267.449 9.47866 268.27 9.2 269.179 9.2H280.707C283.523 9.2 285.679 9.84533 287.175 11.136C288.701 12.3973 289.463 14.216 289.463 16.592C289.463 18.8507 288.979 20.7867 288.011 22.4C287.043 24.0133 285.621 25.2307 283.743 26.052V26.228C285.65 27.196 286.603 28.78 286.603 30.98C286.603 31.3027 286.545 31.8747 286.427 32.696L285.899 35.732C285.635 37.2573 284.873 38.416 283.611 39.208C282.379 40 280.707 40.396 278.595 40.396L279.915 32.916C280.003 32.388 280.047 31.8893 280.047 31.42C280.047 30.4813 279.813 29.792 279.343 29.352C278.874 28.8827 278.155 28.648 277.187 28.648H268.871L267.639 35.732C267.375 37.2573 266.627 38.416 265.395 39.208C264.193 40 262.535 40.396 260.423 40.396L265.395 12.148ZM277.891 23.148C279.417 23.148 280.634 22.6493 281.543 21.652C282.453 20.6547 282.907 19.3053 282.907 17.604C282.907 15.668 281.734 14.7 279.387 14.7H271.335L269.839 23.148H277.891ZM299.932 13.512C300.196 12.016 300.959 10.8573 302.22 10.036C303.481 9.21466 305.139 8.804 307.192 8.804L302.44 35.688C302.176 37.184 301.413 38.3427 300.152 39.164C298.891 39.9853 297.233 40.396 295.18 40.396L299.932 13.512ZM313.874 40C313.112 40 312.496 39.8093 312.026 39.428C311.586 39.0467 311.366 38.5187 311.366 37.844C311.366 37.3747 311.454 36.9347 311.63 36.524C311.806 36.084 312.056 35.7027 312.378 35.38L335.566 13.028L335.214 12.676L333.014 14.7H321.046C319.814 14.7 318.876 14.3773 318.23 13.732C317.585 13.0867 317.262 12.148 317.262 10.916C317.262 10.3293 317.321 9.75733 317.438 9.2H341.066C341.888 9.2 342.504 9.376 342.914 9.728C343.354 10.08 343.574 10.5933 343.574 11.268C343.574 11.7373 343.486 12.2067 343.31 12.676C343.134 13.116 342.885 13.4973 342.562 13.82L319.594 36.172L319.946 36.524L322.102 34.5H335.082C336.285 34.5 337.209 34.8227 337.854 35.468C338.5 36.1133 338.822 37.052 338.822 38.284C338.822 38.8707 338.764 39.4427 338.646 40H313.874ZM351.943 12.148C352.09 11.3267 352.53 10.6373 353.263 10.08C353.996 9.49333 354.818 9.2 355.727 9.2H375.395C375.072 11.1067 374.5 12.5147 373.679 13.424C372.858 14.304 371.728 14.744 370.291 14.744H357.927L356.739 21.696H368.267C367.944 23.6027 367.372 25.0107 366.551 25.92C365.73 26.8 364.6 27.24 363.163 27.24H355.727L354.451 34.456H367.739C368.854 34.456 369.675 34.7347 370.203 35.292C370.76 35.82 371.039 36.6707 371.039 37.844C371.039 38.4013 370.966 39.12 370.819 40H350.271C349.45 40 348.775 39.78 348.247 39.34C347.748 38.8707 347.499 38.284 347.499 37.58C347.499 37.3453 347.514 37.1693 347.543 37.052L351.943 12.148ZM385.245 13.204C385.509 11.7373 386.242 10.6373 387.445 9.904C388.677 9.17066 390.29 8.804 392.285 8.804L389.249 26.008C388.985 27.504 388.237 28.648 387.005 29.44C385.802 30.232 384.189 30.628 382.165 30.628L385.245 13.204ZM383.397 40.396C382.282 40.396 381.387 40.1027 380.713 39.516C380.067 38.9293 379.745 38.1667 379.745 37.228C379.745 35.9373 380.229 34.8373 381.197 33.928C382.194 32.9893 383.382 32.52 384.761 32.52C385.846 32.52 386.726 32.828 387.401 33.444C388.105 34.0307 388.457 34.808 388.457 35.776C388.457 37.0373 387.958 38.1227 386.961 39.032C385.963 39.9413 384.775 40.396 383.397 40.396Z" fill="white"/>
</g>
</g>
<defs>
<filter id="filter0_d_1710_1853" x="0" y="0" width="465" height="49" filterUnits="userSpaceOnUse" color-interpolation-filters="sRGB">
<feFlood flood-opacity="0" result="BackgroundImageFix"/>
<feColorMatrix in="SourceAlpha" type="matrix" values="0 0 0 0 0 0 0 0 0 0 0 0 0 0 0 0 0 0 127 0" result="hardAlpha"/>
<feOffset dx="5" dy="5"/>
<feColorMatrix type="matrix" values="0 0 0 0 0 0 0 0 0 0 0 0 0 0 0 0 0 0 0.3 0"/>
<feBlend mode="normal" in2="BackgroundImageFix" result="effect1_dropShadow_1710_1853"/>
<feBlend mode="normal" in="SourceGraphic" in2="effect1_dropShadow_1710_1853" result="shape"/>
</filter>
<filter id="filter1_d_1710_1853" x="65" y="0" width="46" height="46" filterUnits="userSpaceOnUse" color-interpolation-filters="sRGB">
<feFlood flood-opacity="0" result="BackgroundImageFix"/>
<feColorMatrix in="SourceAlpha" type="matrix" values="0 0 0 0 0 0 0 0 0 0 0 0 0 0 0 0 0 0 127 0" result="hardAlpha"/>
<feOffset dx="-2" dy="2"/>
<feComposite in2="hardAlpha" operator="out"/>
<feColorMatrix type="matrix" values="0 0 0 0 0 0 0 0 0 0.466667 0 0 0 0 0.901961 0 0 0 1 0"/>
<feBlend mode="normal" in2="BackgroundImageFix" result="effect1_dropShadow_1710_1853"/>
<feBlend mode="normal" in="SourceGraphic" in2="effect1_dropShadow_1710_1853" result="shape"/>
</filter>
<filter id="filter2_d_1710_1853" x="125.444" y="8.804" width="266.841" height="33.592" filterUnits="userSpaceOnUse" color-interpolation-filters="sRGB">
<feFlood flood-opacity="0" result="BackgroundImageFix"/>
<feColorMatrix in="SourceAlpha" type="matrix" values="0 0 0 0 0 0 0 0 0 0 0 0 0 0 0 0 0 0 127 0" result="hardAlpha"/>
<feOffset dx="-2" dy="2"/>
<feComposite in2="hardAlpha" operator="out"/>
<feColorMatrix type="matrix" values="0 0 0 0 0 0 0 0 0 0.466667 0 0 0 0 0.901961 0 0 0 1 0"/>
<feBlend mode="normal" in2="BackgroundImageFix" result="effect1_dropShadow_1710_1853"/>
<feBlend mode="normal" in="SourceGraphic" in2="effect1_dropShadow_1710_1853" result="shape"/>
</filter>
</defs>
</svg>
