<svg width="460" height="49" viewBox="0 0 460 49" fill="none" xmlns="http://www.w3.org/2000/svg">
<g filter="url(#filter0_d_833_674)">
<g filter="url(#filter1_d_833_674)">
<path fill-rule="evenodd" clip-rule="evenodd" d="M91.539 39.412C91.2538 39.4118 90.9729 39.3422 90.7206 39.2091L81.4999 34.362L72.2791 39.2091C71.9888 39.3607 71.662 39.4282 71.3354 39.404C71.0089 39.3798 70.6955 39.265 70.4307 39.0723C70.1659 38.8797 69.9602 38.617 69.8366 38.3137C69.7131 38.0105 69.6767 37.6788 69.7315 37.3559L71.49 27.0891L64.0299 19.8184C63.7952 19.5892 63.6293 19.299 63.5509 18.9804C63.4726 18.6619 63.4848 18.3278 63.5864 18.0159C63.6879 17.7039 63.8747 17.4266 64.1256 17.2153C64.3765 17.004 64.6815 16.867 65.0061 16.82L75.3136 15.3207L79.924 5.98045C80.0692 5.68616 80.2938 5.43836 80.5725 5.26509C80.8512 5.09183 81.1728 5 81.501 5C81.8291 5 82.1508 5.09183 82.4294 5.26509C82.7081 5.43836 82.9328 5.68616 83.078 5.98045L87.6884 15.3207L97.9958 16.82C98.3203 16.8674 98.625 17.0046 98.8756 17.216C99.1262 17.4275 99.3127 17.7048 99.414 18.0167C99.5153 18.3286 99.5274 18.6626 99.4489 18.9809C99.3704 19.2993 99.2044 19.5894 98.9698 19.8184L91.512 27.0891L93.2705 37.3559C93.3138 37.6082 93.3015 37.8669 93.2345 38.114C93.1674 38.361 93.0473 38.5904 92.8824 38.7862C92.7175 38.982 92.5119 39.1395 92.2799 39.2476C92.0478 39.3556 91.795 39.4118 91.539 39.412Z" fill="white"/>
</g>
<g filter="url(#filter2_d_833_674)">
<path d="M127.688 40.396C125.429 40.396 123.449 40.088 121.748 39.472C120.047 38.856 118.727 37.9907 117.788 36.876C116.879 35.7613 116.424 34.456 116.424 32.96C116.424 31.0827 116.996 29.7187 118.14 28.868C119.284 27.988 121.088 27.548 123.552 27.548C123.405 27.9587 123.259 28.516 123.112 29.22C122.995 29.924 122.936 30.452 122.936 30.804C122.936 33.4733 124.843 34.808 128.656 34.808C130.973 34.808 132.719 34.412 133.892 33.62C135.095 32.828 135.696 31.6547 135.696 30.1C135.696 28.0467 134.097 27.02 130.9 27.02H129.536C128.832 27.02 128.275 26.8293 127.864 26.448C127.453 26.0667 127.248 25.5533 127.248 24.908C127.248 23.9693 127.556 23.1773 128.172 22.532C128.817 21.8867 129.595 21.564 130.504 21.564H131.912C133.555 21.564 134.831 21.1973 135.74 20.464C136.649 19.7013 137.104 18.6453 137.104 17.296C137.104 16.3573 136.693 15.6387 135.872 15.14C135.08 14.6413 133.921 14.392 132.396 14.392C130.519 14.392 128.993 14.7293 127.82 15.404C126.676 16.0493 126.001 16.9587 125.796 18.132C125.679 18.8067 125.62 19.4813 125.62 20.156C123.919 20.2147 122.54 19.9653 121.484 19.408C120.428 18.8213 119.9 18.0293 119.9 17.032C119.9 15.536 120.501 14.1573 121.704 12.896C122.936 11.6347 124.579 10.6373 126.632 9.904C128.685 9.17066 130.929 8.804 133.364 8.804C136.591 8.804 139.128 9.47866 140.976 10.828C142.824 12.1773 143.748 14.0107 143.748 16.328C143.748 18.0293 143.279 19.5547 142.34 20.904C141.431 22.2533 140.111 23.3827 138.38 24.292C141.02 25.612 142.34 27.4453 142.34 29.792C142.34 31.8747 141.724 33.7227 140.492 35.336C139.26 36.9493 137.529 38.196 135.3 39.076C133.1 39.956 130.563 40.396 127.688 40.396ZM153.971 12.148C154.118 11.2973 154.558 10.5933 155.291 10.036C156.024 9.47866 156.846 9.2 157.755 9.2H169.283C172.099 9.2 174.255 9.84533 175.751 11.136C177.276 12.3973 178.039 14.216 178.039 16.592C178.039 18.8507 177.555 20.7867 176.587 22.4C175.619 24.0133 174.196 25.2307 172.319 26.052V26.228C174.226 27.196 175.179 28.78 175.179 30.98C175.179 31.3027 175.12 31.8747 175.003 32.696L174.475 35.732C174.211 37.2573 173.448 38.416 172.187 39.208C170.955 40 169.283 40.396 167.171 40.396L168.491 32.916C168.579 32.388 168.623 31.8893 168.623 31.42C168.623 30.4813 168.388 29.792 167.919 29.352C167.45 28.8827 166.731 28.648 165.763 28.648H157.447L156.215 35.732C155.951 37.2573 155.203 38.416 153.971 39.208C152.768 40 151.111 40.396 148.999 40.396L153.971 12.148ZM166.467 23.148C167.992 23.148 169.21 22.6493 170.119 21.652C171.028 20.6547 171.483 19.3053 171.483 17.604C171.483 15.668 170.31 14.7 167.963 14.7H159.911L158.415 23.148H166.467ZM186.176 40C185.354 40 184.68 39.78 184.152 39.34C183.653 38.8707 183.404 38.284 183.404 37.58C183.404 37.3453 183.418 37.1693 183.448 37.052L187.848 12.148C187.994 11.2973 188.434 10.5933 189.168 10.036C189.901 9.47866 190.722 9.2 191.632 9.2H201.224C203.424 9.2 205.389 9.64 207.12 10.52C208.88 11.4 210.244 12.6173 211.212 14.172C212.18 15.7267 212.664 17.4573 212.664 19.364C212.664 20.0973 212.605 20.7573 212.488 21.344L211.344 27.768C210.61 31.7867 208.938 34.8373 206.328 36.92C203.717 38.9733 200.197 40 195.768 40H186.176ZM196.296 34.456C198.73 34.456 200.666 33.8987 202.104 32.784C203.57 31.6693 204.494 30.0267 204.876 27.856L206.02 21.256C206.108 20.6693 206.152 20.1413 206.152 19.672C206.152 18.0587 205.609 16.8413 204.524 16.02C203.468 15.1693 201.884 14.744 199.772 14.744H193.832L190.356 34.456H196.296ZM238.198 12.148C238.345 11.2973 238.785 10.5933 239.518 10.036C240.252 9.47866 241.073 9.2 241.982 9.2H253.862C255.622 9.2 257.221 9.56667 258.658 10.3C260.096 11.004 261.225 11.9867 262.046 13.248C262.868 14.48 263.278 15.8733 263.278 17.428C263.278 21.3587 262.164 24.424 259.934 26.624C257.705 28.824 254.596 29.924 250.606 29.924H241.542L240.53 35.732C240.266 37.2573 239.504 38.416 238.242 39.208C237.01 40 235.338 40.396 233.226 40.396L238.198 12.148ZM251.178 24.336C253.056 24.336 254.449 23.852 255.358 22.884C256.268 21.8867 256.722 20.3613 256.722 18.308C256.722 17.1933 256.385 16.328 255.71 15.712C255.065 15.096 254.126 14.788 252.894 14.788H244.226L242.51 24.336H251.178ZM272.891 12.148C273.038 11.2973 273.478 10.5933 274.211 10.036C274.945 9.47866 275.766 9.2 276.675 9.2H288.203C291.019 9.2 293.175 9.84533 294.671 11.136C296.197 12.3973 296.959 14.216 296.959 16.592C296.959 18.8507 296.475 20.7867 295.507 22.4C294.539 24.0133 293.117 25.2307 291.239 26.052V26.228C293.146 27.196 294.099 28.78 294.099 30.98C294.099 31.3027 294.041 31.8747 293.923 32.696L293.395 35.732C293.131 37.2573 292.369 38.416 291.107 39.208C289.875 40 288.203 40.396 286.091 40.396L287.411 32.916C287.499 32.388 287.543 31.8893 287.543 31.42C287.543 30.4813 287.309 29.792 286.839 29.352C286.37 28.8827 285.651 28.648 284.683 28.648H276.367L275.135 35.732C274.871 37.2573 274.123 38.416 272.891 39.208C271.689 40 270.031 40.396 267.919 40.396L272.891 12.148ZM285.387 23.148C286.913 23.148 288.13 22.6493 289.039 21.652C289.949 20.6547 290.403 19.3053 290.403 17.604C290.403 15.668 289.23 14.7 286.883 14.7H278.831L277.335 23.148H285.387ZM307.428 13.512C307.692 12.016 308.455 10.8573 309.716 10.036C310.977 9.21466 312.635 8.804 314.688 8.804L309.936 35.688C309.672 37.184 308.909 38.3427 307.648 39.164C306.387 39.9853 304.729 40.396 302.676 40.396L307.428 13.512ZM321.371 40C320.608 40 319.992 39.8093 319.523 39.428C319.083 39.0467 318.863 38.5187 318.863 37.844C318.863 37.3747 318.951 36.9347 319.127 36.524C319.303 36.084 319.552 35.7027 319.875 35.38L343.063 13.028L342.711 12.676L340.511 14.7H328.543C327.311 14.7 326.372 14.3773 325.727 13.732C325.081 13.0867 324.759 12.148 324.759 10.916C324.759 10.3293 324.817 9.75733 324.935 9.2H348.563C349.384 9.2 350 9.376 350.411 9.728C350.851 10.08 351.071 10.5933 351.071 11.268C351.071 11.7373 350.983 12.2067 350.807 12.676C350.631 13.116 350.381 13.4973 350.059 13.82L327.091 36.172L327.443 36.524L329.599 34.5H342.579C343.781 34.5 344.705 34.8227 345.351 35.468C345.996 36.1133 346.319 37.052 346.319 38.284C346.319 38.8707 346.26 39.4427 346.143 40H321.371ZM359.439 12.148C359.586 11.3267 360.026 10.6373 360.759 10.08C361.492 9.49333 362.314 9.2 363.223 9.2H382.891C382.568 11.1067 381.996 12.5147 381.175 13.424C380.354 14.304 379.224 14.744 377.787 14.744H365.423L364.235 21.696H375.763C375.44 23.6027 374.868 25.0107 374.047 25.92C373.226 26.8 372.096 27.24 370.659 27.24H363.223L361.947 34.456H375.235C376.35 34.456 377.171 34.7347 377.699 35.292C378.256 35.82 378.535 36.6707 378.535 37.844C378.535 38.4013 378.462 39.12 378.315 40H357.767C356.946 40 356.271 39.78 355.743 39.34C355.244 38.8707 354.995 38.284 354.995 37.58C354.995 37.3453 355.01 37.1693 355.039 37.052L359.439 12.148ZM392.741 13.204C393.005 11.7373 393.738 10.6373 394.941 9.904C396.173 9.17066 397.786 8.804 399.781 8.804L396.745 26.008C396.481 27.504 395.733 28.648 394.501 29.44C393.298 30.232 391.685 30.628 389.661 30.628L392.741 13.204ZM390.893 40.396C389.778 40.396 388.884 40.1027 388.209 39.516C387.564 38.9293 387.241 38.1667 387.241 37.228C387.241 35.9373 387.725 34.8373 388.693 33.928C389.69 32.9893 390.878 32.52 392.257 32.52C393.342 32.52 394.222 32.828 394.897 33.444C395.601 34.0307 395.953 34.808 395.953 35.776C395.953 37.0373 395.454 38.1227 394.457 39.032C393.46 39.9413 392.272 40.396 390.893 40.396Z" fill="white"/>
</g>
</g>
<defs>
<filter id="filter0_d_833_674" x="0" y="0" width="465" height="49" filterUnits="userSpaceOnUse" color-interpolation-filters="sRGB">
<feFlood flood-opacity="0" result="BackgroundImageFix"/>
<feColorMatrix in="SourceAlpha" type="matrix" values="0 0 0 0 0 0 0 0 0 0 0 0 0 0 0 0 0 0 127 0" result="hardAlpha"/>
<feOffset dx="5" dy="5"/>
<feColorMatrix type="matrix" values="0 0 0 0 0 0 0 0 0 0 0 0 0 0 0 0 0 0 0.3 0"/>
<feBlend mode="normal" in2="BackgroundImageFix" result="effect1_dropShadow_833_674"/>
<feBlend mode="normal" in="SourceGraphic" in2="effect1_dropShadow_833_674" result="shape"/>
</filter>
<filter id="filter1_d_833_674" x="57.5" y="0" width="46" height="46" filterUnits="userSpaceOnUse" color-interpolation-filters="sRGB">
<feFlood flood-opacity="0" result="BackgroundImageFix"/>
<feColorMatrix in="SourceAlpha" type="matrix" values="0 0 0 0 0 0 0 0 0 0 0 0 0 0 0 0 0 0 127 0" result="hardAlpha"/>
<feOffset dx="-2" dy="2"/>
<feComposite in2="hardAlpha" operator="out"/>
<feColorMatrix type="matrix" values="0 0 0 0 0 0 0 0 0 0.466667 0 0 0 0 0.901961 0 0 0 1 0"/>
<feBlend mode="normal" in2="BackgroundImageFix" result="effect1_dropShadow_833_674"/>
<feBlend mode="normal" in="SourceGraphic" in2="effect1_dropShadow_833_674" result="shape"/>
</filter>
<filter id="filter2_d_833_674" x="114.424" y="8.804" width="285.357" height="33.592" filterUnits="userSpaceOnUse" color-interpolation-filters="sRGB">
<feFlood flood-opacity="0" result="BackgroundImageFix"/>
<feColorMatrix in="SourceAlpha" type="matrix" values="0 0 0 0 0 0 0 0 0 0 0 0 0 0 0 0 0 0 127 0" result="hardAlpha"/>
<feOffset dx="-2" dy="2"/>
<feComposite in2="hardAlpha" operator="out"/>
<feColorMatrix type="matrix" values="0 0 0 0 0 0 0 0 0 0.466667 0 0 0 0 0.901961 0 0 0 1 0"/>
<feBlend mode="normal" in2="BackgroundImageFix" result="effect1_dropShadow_833_674"/>
<feBlend mode="normal" in="SourceGraphic" in2="effect1_dropShadow_833_674" result="shape"/>
</filter>
</defs>
</svg>
