<svg width="24" height="24" viewBox="0 0 24 24" fill="none" xmlns="http://www.w3.org/2000/svg">
<path fill-rule="evenodd" clip-rule="evenodd" d="M2.71232 2.71244C3.12888 2.29588 3.80426 2.29588 4.22082 2.71244L21.2875 19.7791C21.704 20.1957 21.704 20.871 21.2875 21.2876C20.8709 21.7042 20.1955 21.7042 19.779 21.2876L2.71232 4.22094C2.29576 3.80438 2.29576 3.129 2.71232 2.71244Z" fill="white"/>
<path fill-rule="evenodd" clip-rule="evenodd" d="M21.2875 2.71244C21.704 3.129 21.704 3.80438 21.2875 4.22094L4.22082 21.2876C3.80426 21.7042 3.12888 21.7042 2.71232 21.2876C2.29576 20.871 2.29576 20.1957 2.71232 19.7791L19.779 2.71244C20.1955 2.29588 20.8709 2.29588 21.2875 2.71244Z" fill="white"/>
</svg>
