<svg width="32" height="33" viewBox="0 0 32 33" fill="none" xmlns="http://www.w3.org/2000/svg">
<mask id="mask0_1556_94" style="mask-type:alpha" maskUnits="userSpaceOnUse" x="0" y="0" width="32" height="33">
<rect y="0.5" width="32" height="32" fill="#D9D9D9"/>
</mask>
<g mask="url(#mask0_1556_94)">
<path d="M14.6666 28.4333C11.9777 28.1 9.74992 26.9278 7.98325 24.9166C6.21659 22.9055 5.33325 20.5444 5.33325 17.8333C5.33325 16.3666 5.62214 14.9611 6.19992 13.6166C6.7777 12.2722 7.59992 11.1 8.66659 10.1L10.5666 12C9.72214 12.7555 9.08325 13.6333 8.64992 14.6333C8.21659 15.6333 7.99992 16.7 7.99992 17.8333C7.99992 19.7889 8.62214 21.5166 9.86659 23.0166C11.111 24.5166 12.711 25.4333 14.6666 25.7666V28.4333ZM17.3333 28.4333V25.7666C19.2666 25.4111 20.861 24.4889 22.1166 23C23.3721 21.5111 23.9999 19.7889 23.9999 17.8333C23.9999 15.6111 23.2221 13.7222 21.6666 12.1666C20.111 10.6111 18.2221 9.83331 15.9999 9.83331H15.8999L17.3666 11.3L15.4999 13.1666L10.8333 8.49998L15.4999 3.83331L17.3666 5.69998L15.8999 7.16665H15.9999C18.9777 7.16665 21.4999 8.19998 23.5666 10.2666C25.6333 12.3333 26.6666 14.8555 26.6666 17.8333C26.6666 20.5222 25.7833 22.8722 24.0166 24.8833C22.2499 26.8944 20.0221 28.0778 17.3333 28.4333Z" fill="white"/>
</g>
</svg>
