<svg width="460" height="49" viewBox="0 0 460 49" fill="none" xmlns="http://www.w3.org/2000/svg">
<g filter="url(#filter0_d_833_551)">
<g filter="url(#filter1_d_833_551)">
<path fill-rule="evenodd" clip-rule="evenodd" d="M92.039 39.412C91.7538 39.4118 91.4729 39.3422 91.2206 39.2091L81.9999 34.362L72.7791 39.2091C72.4888 39.3607 72.162 39.4282 71.8354 39.404C71.5089 39.3798 71.1955 39.265 70.9307 39.0723C70.6659 38.8797 70.4602 38.617 70.3366 38.3137C70.2131 38.0105 70.1767 37.6788 70.2315 37.3559L71.99 27.0891L64.5299 19.8184C64.2952 19.5892 64.1293 19.299 64.0509 18.9804C63.9726 18.6619 63.9848 18.3278 64.0864 18.0159C64.1879 17.7039 64.3747 17.4266 64.6256 17.2153C64.8765 17.004 65.1815 16.867 65.5061 16.82L75.8136 15.3207L80.424 5.98045C80.5692 5.68616 80.7938 5.43836 81.0725 5.26509C81.3512 5.09183 81.6728 5 82.001 5C82.3291 5 82.6508 5.09183 82.9294 5.26509C83.2081 5.43836 83.4328 5.68616 83.578 5.98045L88.1884 15.3207L98.4958 16.82C98.8203 16.8674 99.125 17.0046 99.3756 17.216C99.6262 17.4275 99.8127 17.7048 99.914 18.0167C100.015 18.3286 100.027 18.6626 99.9489 18.9809C99.8704 19.2993 99.7044 19.5894 99.4698 19.8184L92.012 27.0891L93.7705 37.3559C93.8138 37.6082 93.8015 37.8669 93.7345 38.114C93.6674 38.361 93.5473 38.5904 93.3824 38.7862C93.2175 38.982 93.0119 39.1395 92.7799 39.2476C92.5478 39.3556 92.295 39.4118 92.039 39.412Z" fill="white"/>
</g>
<g filter="url(#filter2_d_833_551)">
<path d="M118.596 40C117.804 40 117.173 39.8093 116.704 39.428C116.264 39.0173 116.044 38.4747 116.044 37.8C116.044 35.6587 117.217 33.532 119.564 31.42C121.911 29.308 125.24 27.372 129.552 25.612C132.397 24.468 134.407 23.3093 135.58 22.136C136.783 20.9627 137.384 19.5547 137.384 17.912C137.384 16.7973 136.973 15.9467 136.152 15.36C135.36 14.744 134.216 14.436 132.72 14.436C130.432 14.436 128.701 14.9787 127.528 16.064C126.355 17.1493 125.768 18.7627 125.768 20.904C125.768 21.1387 125.783 21.3 125.812 21.388C125.343 21.476 124.873 21.52 124.404 21.52C123.113 21.52 122.028 21.1827 121.148 20.508C120.297 19.804 119.872 18.924 119.872 17.868C119.872 16.2547 120.473 14.7587 121.676 13.38C122.908 11.972 124.551 10.8573 126.604 10.036C128.687 9.21466 130.916 8.804 133.292 8.804C135.433 8.804 137.311 9.14133 138.924 9.816C140.537 10.4907 141.784 11.4587 142.664 12.72C143.573 13.952 144.028 15.3893 144.028 17.032C144.028 22.1653 140.112 26.36 132.28 29.616C129.405 30.8187 127.352 31.772 126.12 32.476C124.888 33.18 124.169 33.8547 123.964 34.5H136.768C138.088 34.5 139.085 34.8227 139.76 35.468C140.435 36.1133 140.772 37.0667 140.772 38.328C140.772 38.8853 140.713 39.4427 140.596 40H118.596ZM153.562 13.864C153.826 12.3387 154.574 11.1213 155.806 10.212C157.038 9.27333 158.548 8.804 160.338 8.804L170.458 31.156L171.03 30.76L169.622 27.46L172.922 8.804C176.676 8.804 178.554 10.0507 178.554 12.544C178.554 12.6907 178.524 12.9987 178.466 13.468L174.462 36.128C174.256 37.2427 173.582 38.24 172.438 39.12C171.294 39.9707 170.076 40.396 168.786 40.396L157.962 16.592L157.434 16.988L158.842 20.288L156.114 35.732C155.85 37.2573 155.102 38.416 153.87 39.208C152.638 40 150.98 40.396 148.898 40.396L153.562 13.864ZM186.289 40C185.468 40 184.793 39.78 184.265 39.34C183.766 38.8707 183.517 38.284 183.517 37.58C183.517 37.3453 183.532 37.1693 183.561 37.052L187.961 12.148C188.108 11.2973 188.548 10.5933 189.281 10.036C190.014 9.47866 190.836 9.2 191.745 9.2H201.337C203.537 9.2 205.502 9.64 207.233 10.52C208.993 11.4 210.357 12.6173 211.325 14.172C212.293 15.7267 212.777 17.4573 212.777 19.364C212.777 20.0973 212.718 20.7573 212.601 21.344L211.457 27.768C210.724 31.7867 209.052 34.8373 206.441 36.92C203.83 38.9733 200.31 40 195.881 40H186.289ZM196.409 34.456C198.844 34.456 200.78 33.8987 202.217 32.784C203.684 31.6693 204.608 30.0267 204.989 27.856L206.133 21.256C206.221 20.6693 206.265 20.1413 206.265 19.672C206.265 18.0587 205.722 16.8413 204.637 16.02C203.581 15.1693 201.997 14.744 199.885 14.744H193.945L190.469 34.456H196.409ZM238.312 12.148C238.458 11.2973 238.898 10.5933 239.632 10.036C240.365 9.47866 241.186 9.2 242.096 9.2H253.976C255.736 9.2 257.334 9.56667 258.772 10.3C260.209 11.004 261.338 11.9867 262.16 13.248C262.981 14.48 263.392 15.8733 263.392 17.428C263.392 21.3587 262.277 24.424 260.048 26.624C257.818 28.824 254.709 29.924 250.72 29.924H241.656L240.644 35.732C240.38 37.2573 239.617 38.416 238.356 39.208C237.124 40 235.452 40.396 233.34 40.396L238.312 12.148ZM251.292 24.336C253.169 24.336 254.562 23.852 255.472 22.884C256.381 21.8867 256.836 20.3613 256.836 18.308C256.836 17.1933 256.498 16.328 255.824 15.712C255.178 15.096 254.24 14.788 253.008 14.788H244.34L242.624 24.336H251.292ZM273.005 12.148C273.151 11.2973 273.591 10.5933 274.325 10.036C275.058 9.47866 275.879 9.2 276.789 9.2H288.317C291.133 9.2 293.289 9.84533 294.785 11.136C296.31 12.3973 297.073 14.216 297.073 16.592C297.073 18.8507 296.589 20.7867 295.621 22.4C294.653 24.0133 293.23 25.2307 291.353 26.052V26.228C293.259 27.196 294.213 28.78 294.213 30.98C294.213 31.3027 294.154 31.8747 294.037 32.696L293.509 35.732C293.245 37.2573 292.482 38.416 291.221 39.208C289.989 40 288.317 40.396 286.205 40.396L287.525 32.916C287.613 32.388 287.657 31.8893 287.657 31.42C287.657 30.4813 287.422 29.792 286.953 29.352C286.483 28.8827 285.765 28.648 284.797 28.648H276.481L275.249 35.732C274.985 37.2573 274.237 38.416 273.005 39.208C271.802 40 270.145 40.396 268.033 40.396L273.005 12.148ZM285.501 23.148C287.026 23.148 288.243 22.6493 289.153 21.652C290.062 20.6547 290.517 19.3053 290.517 17.604C290.517 15.668 289.343 14.7 286.997 14.7H278.945L277.449 23.148H285.501ZM307.541 13.512C307.805 12.016 308.568 10.8573 309.829 10.036C311.091 9.21466 312.748 8.804 314.801 8.804L310.049 35.688C309.785 37.184 309.023 38.3427 307.761 39.164C306.5 39.9853 304.843 40.396 302.789 40.396L307.541 13.512ZM321.484 40C320.721 40 320.105 39.8093 319.636 39.428C319.196 39.0467 318.976 38.5187 318.976 37.844C318.976 37.3747 319.064 36.9347 319.24 36.524C319.416 36.084 319.665 35.7027 319.988 35.38L343.176 13.028L342.824 12.676L340.624 14.7H328.656C327.424 14.7 326.485 14.3773 325.84 13.732C325.194 13.0867 324.872 12.148 324.872 10.916C324.872 10.3293 324.93 9.75733 325.048 9.2H348.676C349.497 9.2 350.113 9.376 350.524 9.728C350.964 10.08 351.184 10.5933 351.184 11.268C351.184 11.7373 351.096 12.2067 350.92 12.676C350.744 13.116 350.494 13.4973 350.172 13.82L327.204 36.172L327.556 36.524L329.712 34.5H342.692C343.894 34.5 344.818 34.8227 345.464 35.468C346.109 36.1133 346.432 37.052 346.432 38.284C346.432 38.8707 346.373 39.4427 346.256 40H321.484ZM359.552 12.148C359.699 11.3267 360.139 10.6373 360.872 10.08C361.606 9.49333 362.427 9.2 363.336 9.2H383.004C382.682 11.1067 382.11 12.5147 381.288 13.424C380.467 14.304 379.338 14.744 377.9 14.744H365.536L364.348 21.696H375.876C375.554 23.6027 374.982 25.0107 374.16 25.92C373.339 26.8 372.21 27.24 370.772 27.24H363.336L362.06 34.456H375.348C376.463 34.456 377.284 34.7347 377.812 35.292C378.37 35.82 378.648 36.6707 378.648 37.844C378.648 38.4013 378.575 39.12 378.428 40H357.88C357.059 40 356.384 39.78 355.856 39.34C355.358 38.8707 355.108 38.284 355.108 37.58C355.108 37.3453 355.123 37.1693 355.152 37.052L359.552 12.148ZM392.854 13.204C393.118 11.7373 393.852 10.6373 395.054 9.904C396.286 9.17066 397.9 8.804 399.894 8.804L396.858 26.008C396.594 27.504 395.846 28.648 394.614 29.44C393.412 30.232 391.798 30.628 389.774 30.628L392.854 13.204ZM391.006 40.396C389.892 40.396 388.997 40.1027 388.322 39.516C387.677 38.9293 387.354 38.1667 387.354 37.228C387.354 35.9373 387.838 34.8373 388.806 33.928C389.804 32.9893 390.992 32.52 392.37 32.52C393.456 32.52 394.336 32.828 395.01 33.444C395.714 34.0307 396.066 34.808 396.066 35.776C396.066 37.0373 395.568 38.1227 394.57 39.032C393.573 39.9413 392.385 40.396 391.006 40.396Z" fill="white"/>
</g>
</g>
<defs>
<filter id="filter0_d_833_551" x="0" y="0" width="465" height="49" filterUnits="userSpaceOnUse" color-interpolation-filters="sRGB">
<feFlood flood-opacity="0" result="BackgroundImageFix"/>
<feColorMatrix in="SourceAlpha" type="matrix" values="0 0 0 0 0 0 0 0 0 0 0 0 0 0 0 0 0 0 127 0" result="hardAlpha"/>
<feOffset dx="5" dy="5"/>
<feColorMatrix type="matrix" values="0 0 0 0 0 0 0 0 0 0 0 0 0 0 0 0 0 0 0.3 0"/>
<feBlend mode="normal" in2="BackgroundImageFix" result="effect1_dropShadow_833_551"/>
<feBlend mode="normal" in="SourceGraphic" in2="effect1_dropShadow_833_551" result="shape"/>
</filter>
<filter id="filter1_d_833_551" x="58" y="0" width="46" height="46" filterUnits="userSpaceOnUse" color-interpolation-filters="sRGB">
<feFlood flood-opacity="0" result="BackgroundImageFix"/>
<feColorMatrix in="SourceAlpha" type="matrix" values="0 0 0 0 0 0 0 0 0 0 0 0 0 0 0 0 0 0 127 0" result="hardAlpha"/>
<feOffset dx="-2" dy="2"/>
<feComposite in2="hardAlpha" operator="out"/>
<feColorMatrix type="matrix" values="0 0 0 0 0 0 0 0 0 0.466667 0 0 0 0 0.901961 0 0 0 1 0"/>
<feBlend mode="normal" in2="BackgroundImageFix" result="effect1_dropShadow_833_551"/>
<feBlend mode="normal" in="SourceGraphic" in2="effect1_dropShadow_833_551" result="shape"/>
</filter>
<filter id="filter2_d_833_551" x="114.044" y="8.804" width="285.85" height="33.592" filterUnits="userSpaceOnUse" color-interpolation-filters="sRGB">
<feFlood flood-opacity="0" result="BackgroundImageFix"/>
<feColorMatrix in="SourceAlpha" type="matrix" values="0 0 0 0 0 0 0 0 0 0 0 0 0 0 0 0 0 0 127 0" result="hardAlpha"/>
<feOffset dx="-2" dy="2"/>
<feComposite in2="hardAlpha" operator="out"/>
<feColorMatrix type="matrix" values="0 0 0 0 0 0 0 0 0 0.466667 0 0 0 0 0.901961 0 0 0 1 0"/>
<feBlend mode="normal" in2="BackgroundImageFix" result="effect1_dropShadow_833_551"/>
<feBlend mode="normal" in="SourceGraphic" in2="effect1_dropShadow_833_551" result="shape"/>
</filter>
</defs>
</svg>
