<svg width="460" height="49" viewBox="0 0 460 49" fill="none" xmlns="http://www.w3.org/2000/svg">
<g filter="url(#filter0_d_4023_13657)">
<g filter="url(#filter1_d_4023_13657)">
<path fill-rule="evenodd" clip-rule="evenodd" d="M92.039 39.412C91.7538 39.4118 91.4729 39.3422 91.2206 39.2091L81.9999 34.362L72.7791 39.2091C72.4888 39.3607 72.162 39.4282 71.8354 39.404C71.5089 39.3798 71.1955 39.265 70.9307 39.0723C70.6659 38.8797 70.4602 38.617 70.3366 38.3137C70.2131 38.0105 70.1767 37.6788 70.2315 37.3559L71.99 27.0891L64.5299 19.8184C64.2952 19.5892 64.1293 19.299 64.0509 18.9804C63.9726 18.6619 63.9848 18.3278 64.0864 18.0159C64.1879 17.7039 64.3747 17.4266 64.6256 17.2153C64.8765 17.004 65.1815 16.867 65.5061 16.82L75.8136 15.3207L80.424 5.98045C80.5692 5.68616 80.7938 5.43836 81.0725 5.26509C81.3512 5.09183 81.6728 5 82.001 5C82.3291 5 82.6508 5.09183 82.9294 5.26509C83.2081 5.43836 83.4328 5.68616 83.578 5.98045L88.1884 15.3207L98.4958 16.82C98.8203 16.8674 99.125 17.0046 99.3756 17.216C99.6262 17.4275 99.8127 17.7048 99.914 18.0167C100.015 18.3286 100.027 18.6626 99.9489 18.9809C99.8704 19.2993 99.7044 19.5894 99.4698 19.8184L92.012 27.0891L93.7705 37.3559C93.8138 37.6082 93.8015 37.8669 93.7345 38.114C93.6674 38.361 93.5473 38.5904 93.3824 38.7862C93.2175 38.982 93.0119 39.1395 92.7799 39.2476C92.5478 39.3556 92.295 39.4118 92.039 39.412Z" fill="white"/>
</g>
<g filter="url(#filter2_d_4023_13657)">
<path d="M127.88 40.396C125.885 40.396 124.037 40.0733 122.336 39.428C120.664 38.7827 119.329 37.9027 118.332 36.788C117.364 35.6733 116.88 34.456 116.88 33.136C116.88 29.9093 118.845 28.296 122.776 28.296L123.7 28.34C123.553 28.7213 123.421 29.1907 123.304 29.748C123.187 30.276 123.128 30.6867 123.128 30.98C123.128 32.1827 123.627 33.1213 124.624 33.796C125.651 34.4413 127.073 34.764 128.892 34.764C131.121 34.764 132.925 34.0893 134.304 32.74C135.712 31.3613 136.416 29.5867 136.416 27.416C136.416 25.9787 135.932 24.864 134.964 24.072C133.996 23.28 132.617 22.884 130.828 22.884C128.569 22.884 126.545 23.4413 124.756 24.556C123.935 25.084 123.069 25.348 122.16 25.348C121.368 25.348 120.723 25.1427 120.224 24.732C119.725 24.292 119.476 23.72 119.476 23.016C119.476 22.664 119.535 22.3267 119.652 22.004L123.26 11.532C123.817 9.97733 124.976 9.2 126.736 9.2H144.644C143.969 12.8667 142.18 14.7 139.276 14.7H127.616L126.208 18.792C125.328 19.32 124.595 19.8333 124.008 20.332L124.228 20.64C125.46 19.7013 126.941 18.9533 128.672 18.396C130.403 17.8093 132.031 17.516 133.556 17.516C135.375 17.516 136.973 17.8827 138.352 18.616C139.76 19.32 140.845 20.332 141.608 21.652C142.371 22.972 142.752 24.4827 142.752 26.184C142.752 29.0587 142.136 31.5667 140.904 33.708C139.701 35.8493 137.971 37.5067 135.712 38.68C133.483 39.824 130.872 40.396 127.88 40.396ZM162.714 14.788H152.066C152.74 11.0627 154.75 9.2 158.094 9.2H180.71C180.094 12.9253 178.084 14.788 174.682 14.788H169.182L165.486 35.732C165.222 37.2573 164.459 38.416 163.198 39.208C161.966 40 160.294 40.396 158.182 40.396L162.714 14.788ZM187.87 13.468C188.134 11.9427 188.882 10.784 190.114 9.992C191.346 9.2 193.033 8.804 195.174 8.804L192.886 21.696H205.206L206.658 13.468C206.922 11.9427 207.67 10.784 208.902 9.992C210.163 9.2 211.85 8.804 213.962 8.804L209.21 35.732C208.946 37.2573 208.183 38.416 206.922 39.208C205.69 40 204.018 40.396 201.906 40.396L204.238 27.284H191.918L190.422 35.732C190.158 37.2573 189.395 38.416 188.134 39.208C186.902 40 185.23 40.396 183.118 40.396L187.87 13.468ZM238.355 12.148C238.501 11.2973 238.941 10.5933 239.675 10.036C240.408 9.47866 241.229 9.2 242.139 9.2H254.019C255.779 9.2 257.377 9.56667 258.815 10.3C260.252 11.004 261.381 11.9867 262.203 13.248C263.024 14.48 263.435 15.8733 263.435 17.428C263.435 21.3587 262.32 24.424 260.091 26.624C257.861 28.824 254.752 29.924 250.763 29.924H241.699L240.687 35.732C240.423 37.2573 239.66 38.416 238.399 39.208C237.167 40 235.495 40.396 233.383 40.396L238.355 12.148ZM251.335 24.336C253.212 24.336 254.605 23.852 255.515 22.884C256.424 21.8867 256.879 20.3613 256.879 18.308C256.879 17.1933 256.541 16.328 255.867 15.712C255.221 15.096 254.283 14.788 253.051 14.788H244.383L242.667 24.336H251.335ZM273.048 12.148C273.194 11.2973 273.634 10.5933 274.368 10.036C275.101 9.47866 275.922 9.2 276.832 9.2H288.36C291.176 9.2 293.332 9.84533 294.828 11.136C296.353 12.3973 297.116 14.216 297.116 16.592C297.116 18.8507 296.632 20.7867 295.664 22.4C294.696 24.0133 293.273 25.2307 291.396 26.052V26.228C293.302 27.196 294.256 28.78 294.256 30.98C294.256 31.3027 294.197 31.8747 294.08 32.696L293.552 35.732C293.288 37.2573 292.525 38.416 291.264 39.208C290.032 40 288.36 40.396 286.248 40.396L287.568 32.916C287.656 32.388 287.7 31.8893 287.7 31.42C287.7 30.4813 287.465 29.792 286.996 29.352C286.526 28.8827 285.808 28.648 284.84 28.648H276.524L275.292 35.732C275.028 37.2573 274.28 38.416 273.048 39.208C271.845 40 270.188 40.396 268.076 40.396L273.048 12.148ZM285.544 23.148C287.069 23.148 288.286 22.6493 289.196 21.652C290.105 20.6547 290.56 19.3053 290.56 17.604C290.56 15.668 289.386 14.7 287.04 14.7H278.988L277.492 23.148H285.544ZM307.584 13.512C307.848 12.016 308.611 10.8573 309.872 10.036C311.134 9.21466 312.791 8.804 314.844 8.804L310.092 35.688C309.828 37.184 309.066 38.3427 307.804 39.164C306.543 39.9853 304.886 40.396 302.832 40.396L307.584 13.512ZM321.527 40C320.764 40 320.148 39.8093 319.679 39.428C319.239 39.0467 319.019 38.5187 319.019 37.844C319.019 37.3747 319.107 36.9347 319.283 36.524C319.459 36.084 319.708 35.7027 320.031 35.38L343.219 13.028L342.867 12.676L340.667 14.7H328.699C327.467 14.7 326.528 14.3773 325.883 13.732C325.237 13.0867 324.915 12.148 324.915 10.916C324.915 10.3293 324.973 9.75733 325.091 9.2H348.719C349.54 9.2 350.156 9.376 350.567 9.728C351.007 10.08 351.227 10.5933 351.227 11.268C351.227 11.7373 351.139 12.2067 350.963 12.676C350.787 13.116 350.537 13.4973 350.215 13.82L327.247 36.172L327.599 36.524L329.755 34.5H342.735C343.937 34.5 344.861 34.8227 345.507 35.468C346.152 36.1133 346.475 37.052 346.475 38.284C346.475 38.8707 346.416 39.4427 346.299 40H321.527ZM359.595 12.148C359.742 11.3267 360.182 10.6373 360.915 10.08C361.649 9.49333 362.47 9.2 363.379 9.2H383.047C382.725 11.1067 382.153 12.5147 381.331 13.424C380.51 14.304 379.381 14.744 377.943 14.744H365.579L364.391 21.696H375.919C375.597 23.6027 375.025 25.0107 374.203 25.92C373.382 26.8 372.253 27.24 370.815 27.24H363.379L362.103 34.456H375.391C376.506 34.456 377.327 34.7347 377.855 35.292C378.413 35.82 378.691 36.6707 378.691 37.844C378.691 38.4013 378.618 39.12 378.471 40H357.923C357.102 40 356.427 39.78 355.899 39.34C355.401 38.8707 355.151 38.284 355.151 37.58C355.151 37.3453 355.166 37.1693 355.195 37.052L359.595 12.148ZM392.897 13.204C393.161 11.7373 393.894 10.6373 395.097 9.904C396.329 9.17066 397.942 8.804 399.937 8.804L396.901 26.008C396.637 27.504 395.889 28.648 394.657 29.44C393.454 30.232 391.841 30.628 389.817 30.628L392.897 13.204ZM391.049 40.396C389.934 40.396 389.04 40.1027 388.365 39.516C387.72 38.9293 387.397 38.1667 387.397 37.228C387.397 35.9373 387.881 34.8373 388.849 33.928C389.846 32.9893 391.034 32.52 392.413 32.52C393.498 32.52 394.378 32.828 395.053 33.444C395.757 34.0307 396.109 34.808 396.109 35.776C396.109 37.0373 395.61 38.1227 394.613 39.032C393.616 39.9413 392.428 40.396 391.049 40.396Z" fill="white"/>
</g>
</g>
<defs>
<filter id="filter0_d_4023_13657" x="0" y="0" width="465" height="49" filterUnits="userSpaceOnUse" color-interpolation-filters="sRGB">
<feFlood flood-opacity="0" result="BackgroundImageFix"/>
<feColorMatrix in="SourceAlpha" type="matrix" values="0 0 0 0 0 0 0 0 0 0 0 0 0 0 0 0 0 0 127 0" result="hardAlpha"/>
<feOffset dx="5" dy="5"/>
<feColorMatrix type="matrix" values="0 0 0 0 0 0 0 0 0 0 0 0 0 0 0 0 0 0 0.3 0"/>
<feBlend mode="normal" in2="BackgroundImageFix" result="effect1_dropShadow_4023_13657"/>
<feBlend mode="normal" in="SourceGraphic" in2="effect1_dropShadow_4023_13657" result="shape"/>
</filter>
<filter id="filter1_d_4023_13657" x="58" y="0" width="46" height="46" filterUnits="userSpaceOnUse" color-interpolation-filters="sRGB">
<feFlood flood-opacity="0" result="BackgroundImageFix"/>
<feColorMatrix in="SourceAlpha" type="matrix" values="0 0 0 0 0 0 0 0 0 0 0 0 0 0 0 0 0 0 127 0" result="hardAlpha"/>
<feOffset dx="-2" dy="2"/>
<feComposite in2="hardAlpha" operator="out"/>
<feColorMatrix type="matrix" values="0 0 0 0 0 0 0 0 0 0.466667 0 0 0 0 0.901961 0 0 0 1 0"/>
<feBlend mode="normal" in2="BackgroundImageFix" result="effect1_dropShadow_4023_13657"/>
<feBlend mode="normal" in="SourceGraphic" in2="effect1_dropShadow_4023_13657" result="shape"/>
</filter>
<filter id="filter2_d_4023_13657" x="114.88" y="8.80396" width="285.058" height="33.592" filterUnits="userSpaceOnUse" color-interpolation-filters="sRGB">
<feFlood flood-opacity="0" result="BackgroundImageFix"/>
<feColorMatrix in="SourceAlpha" type="matrix" values="0 0 0 0 0 0 0 0 0 0 0 0 0 0 0 0 0 0 127 0" result="hardAlpha"/>
<feOffset dx="-2" dy="2"/>
<feComposite in2="hardAlpha" operator="out"/>
<feColorMatrix type="matrix" values="0 0 0 0 0 0 0 0 0 0.466667 0 0 0 0 0.901961 0 0 0 1 0"/>
<feBlend mode="normal" in2="BackgroundImageFix" result="effect1_dropShadow_4023_13657"/>
<feBlend mode="normal" in="SourceGraphic" in2="effect1_dropShadow_4023_13657" result="shape"/>
</filter>
</defs>
</svg>
